<svg width="2048" height="2048" viewBox="0 0 2048 2048" fill="none" xmlns="http://www.w3.org/2000/svg">
  <circle cx="1024.0" cy="984.0" r="620.0" fill="#fee2e2" opacity="0.0000" /><circle cx="1024.0" cy="984.0" r="575.7" fill="#fee2e2" opacity="0.0013" /><circle cx="1024.0" cy="984.0" r="531.4" fill="#fee2e2" opacity="0.0052" /><circle cx="1024.0" cy="984.0" r="487.1" fill="#fee2e2" opacity="0.0118" /><circle cx="1024.0" cy="984.0" r="442.9" fill="#fee2e2" opacity="0.0210" /><circle cx="1024.0" cy="984.0" r="398.6" fill="#fee2e2" opacity="0.0328" /><circle cx="1024.0" cy="984.0" r="354.3" fill="#fee2e2" opacity="0.0472" /><circle cx="1024.0" cy="984.0" r="310.0" fill="#fee2e2" opacity="0.0643" /><circle cx="1024.0" cy="984.0" r="265.7" fill="#fee2e2" opacity="0.0840" /><circle cx="1024.0" cy="984.0" r="221.4" fill="#fee2e2" opacity="0.1063" /><circle cx="1024.0" cy="984.0" r="177.1" fill="#fee2e2" opacity="0.1312" /><circle cx="1024.0" cy="984.0" r="132.9" fill="#fee2e2" opacity="0.1587" /><circle cx="1024.0" cy="984.0" r="88.6" fill="#fee2e2" opacity="0.1889" /><circle cx="1024.0" cy="984.0" r="44.3" fill="#fee2e2" opacity="0.2217" />
  <ellipse cx="1024.0" cy="1364.0" rx="380.0" ry="56.0" fill="#0F172A" opacity="0.12" /><polygon points="781.5,1174.0 989.4,1294.0 989.4,1594.0 781.5,1474.0" fill="#dc2626"  /><polygon points="1266.5,1134.0 989.4,1294.0 989.4,1594.0 1266.5,1434.0" fill="#991b1b"  /><polygon points="1058.6,1014.0 1266.5,1134.0 989.4,1294.0 781.5,1174.0" fill="#fee2e2"  /><polygon points="1024.0,1023.8 1234.0,1200.0 1024.0,1259.0 814.0,1200.0" fill="#f87171" stroke="#991b1b" stroke-width="3" /><rect x="1028.8" y="1302.0" width="32.0" height="210.0" fill="#fee2e2"  /><ellipse cx="1044.8" cy="1512.0" rx="16.0" ry="8.0" fill="#fee2e2"  opacity="0.85" /><ellipse cx="1044.8" cy="1302.0" rx="16.0" ry="8.0" fill="#ffffff"  /><rect x="1084.2" y="1270.0" width="32.0" height="210.0" fill="#fee2e2"  /><ellipse cx="1100.2" cy="1480.0" rx="16.0" ry="8.0" fill="#fee2e2"  opacity="0.85" /><ellipse cx="1100.2" cy="1270.0" rx="16.0" ry="8.0" fill="#ffffff"  /><rect x="1139.6" y="1238.0" width="32.0" height="210.0" fill="#fee2e2"  /><ellipse cx="1155.6" cy="1448.0" rx="16.0" ry="8.0" fill="#fee2e2"  opacity="0.85" /><ellipse cx="1155.6" cy="1238.0" rx="16.0" ry="8.0" fill="#ffffff"  /><rect x="1195.1" y="1206.0" width="32.0" height="210.0" fill="#fee2e2"  /><ellipse cx="1211.1" cy="1416.0" rx="16.0" ry="8.0" fill="#fee2e2"  opacity="0.85" /><ellipse cx="1211.1" cy="1206.0" rx="16.0" ry="8.0" fill="#ffffff"  /><polygon points="1234.1,889.0 1364.0,964.0 1364.0,976.0 1234.1,901.0" fill="#fee2e2" stroke="#dc2626" stroke-width="2" stroke-opacity="0.55" /><polygon points="1554.5,854.0 1364.0,964.0 1364.0,976.0 1554.5,866.0" fill="#fee2e2" stroke="#dc2626" stroke-width="2" stroke-opacity="0.55" /><polygon points="1424.6,779.0 1554.5,854.0 1364.0,964.0 1234.1,889.0" fill="rgba(255,255,255,0.7)" stroke="#dc2626" stroke-width="2" stroke-opacity="0.55" /><polygon points="1277.7,873.8 1295.9,884.3 1295.9,887.3 1277.7,876.8" fill="#f87171" opacity="0.6" /><polygon points="1391.2,829.3 1295.9,884.3 1295.9,887.3 1391.2,832.3" fill="#f87171" opacity="0.6" /><polygon points="1373.0,818.8 1391.2,829.3 1295.9,884.3 1277.7,873.8" fill="#f87171" opacity="0.6" /><polygon points="1301.1,887.3 1319.3,897.8 1319.3,900.8 1301.1,890.3" fill="#f87171" opacity="0.52" /><polygon points="1399.3,851.6 1319.3,897.8 1319.3,900.8 1399.3,854.6" fill="#f87171" opacity="0.52" /><polygon points="1381.1,841.1 1399.3,851.6 1319.3,897.8 1301.1,887.3" fill="#f87171" opacity="0.52" /><polygon points="1324.5,900.8 1342.7,911.3 1342.7,914.3 1324.5,903.8" fill="#f87171" opacity="0.43999999999999995" /><polygon points="1407.5,873.9 1342.7,911.3 1342.7,914.3 1407.5,876.9" fill="#f87171" opacity="0.43999999999999995" /><polygon points="1389.3,863.4 1407.5,873.9 1342.7,911.3 1324.5,900.8" fill="#f87171" opacity="0.43999999999999995" /><circle cx="624.0" cy="764.0" r="39.6" fill="#f87171" opacity="0.105" /><circle cx="624.0" cy="764.0" r="18.0" fill="#f87171" opacity="0.75" /><circle cx="618.6" cy="758.6" r="6.3" fill="#ffffff" opacity="0.45" />
</svg>
