<svg width="2048" height="2048" viewBox="0 0 2048 2048" fill="none" xmlns="http://www.w3.org/2000/svg">
  <circle cx="1024.0" cy="984.0" r="620.0" fill="#fee2e2" opacity="0.0000" /><circle cx="1024.0" cy="984.0" r="575.7" fill="#fee2e2" opacity="0.0013" /><circle cx="1024.0" cy="984.0" r="531.4" fill="#fee2e2" opacity="0.0052" /><circle cx="1024.0" cy="984.0" r="487.1" fill="#fee2e2" opacity="0.0118" /><circle cx="1024.0" cy="984.0" r="442.9" fill="#fee2e2" opacity="0.0210" /><circle cx="1024.0" cy="984.0" r="398.6" fill="#fee2e2" opacity="0.0328" /><circle cx="1024.0" cy="984.0" r="354.3" fill="#fee2e2" opacity="0.0472" /><circle cx="1024.0" cy="984.0" r="310.0" fill="#fee2e2" opacity="0.0643" /><circle cx="1024.0" cy="984.0" r="265.7" fill="#fee2e2" opacity="0.0840" /><circle cx="1024.0" cy="984.0" r="221.4" fill="#fee2e2" opacity="0.1063" /><circle cx="1024.0" cy="984.0" r="177.1" fill="#fee2e2" opacity="0.1312" /><circle cx="1024.0" cy="984.0" r="132.9" fill="#fee2e2" opacity="0.1587" /><circle cx="1024.0" cy="984.0" r="88.6" fill="#fee2e2" opacity="0.1889" /><circle cx="1024.0" cy="984.0" r="44.3" fill="#fee2e2" opacity="0.2217" />
  <ellipse cx="1024.0" cy="1274.0" rx="360.0" ry="52.0" fill="#0F172A" opacity="0.12" /><polygon points="1039.7,1198.0 1043.2,1200.0 1043.2,1222.0 1039.7,1220.0" fill="#fee2e2" stroke="#dc2626" stroke-width="2" /><polygon points="1268.3,1070.0 1043.2,1200.0 1043.2,1222.0 1268.3,1092.0" fill="#fee2e2" stroke="#dc2626" stroke-width="2" /><polygon points="1264.8,1068.0 1268.3,1070.0 1043.2,1200.0 1039.7,1198.0" fill="#ffffff" stroke="#dc2626" stroke-width="2" /><polygon points="779.7,1070.0 1004.8,1200.0 1004.8,1222.0 779.7,1092.0" fill="#fee2e2" stroke="#dc2626" stroke-width="2" /><polygon points="1008.3,1198.0 1004.8,1200.0 1004.8,1222.0 1008.3,1220.0" fill="#fee2e2" stroke="#dc2626" stroke-width="2" /><polygon points="783.2,1068.0 1008.3,1198.0 1004.8,1200.0 779.7,1070.0" fill="#ffffff" stroke="#dc2626" stroke-width="2" /><line x1="1054.0" y1="1104.0" x2="1224.0" y2="1144.0" stroke="#f87171" stroke-width="3" opacity="0.5" /><line x1="1058.0" y1="1082.0" x2="1224.0" y2="1122.0" stroke="#f87171" stroke-width="3" opacity="0.5" /><line x1="1062.0" y1="1060.0" x2="1224.0" y2="1100.0" stroke="#f87171" stroke-width="3" opacity="0.5" /><polygon points="1014.0,797.5 1244.0,930.0 1014.0,1039.0 784.0,930.0" fill="#dc2626" stroke="#991b1b" stroke-width="3" /><polygon points="927.4,930.0 1014.0,980.0 1014.0,1026.0 927.4,976.0" fill="#dc2626"  /><polygon points="1100.6,930.0 1014.0,980.0 1014.0,1026.0 1100.6,976.0" fill="#991b1b"  /><polygon points="1014.0,880.0 1100.6,930.0 1014.0,980.0 927.4,930.0" fill="#f87171"  /><line x1="1244.0" y1="930.0" x2="1244.0" y2="1004.0" stroke="#991b1b" stroke-width="5"  /><circle cx="1244.0" cy="1016.0" r="13.0" fill="#991b1b"  /><circle cx="644.0" cy="764.0" r="44.0" fill="#f87171" opacity="0.112" /><circle cx="644.0" cy="764.0" r="20.0" fill="#f87171" opacity="0.8" /><circle cx="638.0" cy="758.0" r="7.0" fill="#ffffff" opacity="0.48" /><circle cx="1424.0" cy="904.0" r="30.8" fill="#dc2626" opacity="0.091" /><circle cx="1424.0" cy="904.0" r="14.0" fill="#dc2626" opacity="0.65" /><circle cx="1419.8" cy="899.8" r="4.9" fill="#ffffff" opacity="0.39" />
</svg>
