<svg width="2048" height="2048" viewBox="0 0 2048 2048" fill="none" xmlns="http://www.w3.org/2000/svg">
  <circle cx="1024.0" cy="984.0" r="620.0" fill="#fee2e2" opacity="0.0000" /><circle cx="1024.0" cy="984.0" r="575.7" fill="#fee2e2" opacity="0.0013" /><circle cx="1024.0" cy="984.0" r="531.4" fill="#fee2e2" opacity="0.0052" /><circle cx="1024.0" cy="984.0" r="487.1" fill="#fee2e2" opacity="0.0118" /><circle cx="1024.0" cy="984.0" r="442.9" fill="#fee2e2" opacity="0.0210" /><circle cx="1024.0" cy="984.0" r="398.6" fill="#fee2e2" opacity="0.0328" /><circle cx="1024.0" cy="984.0" r="354.3" fill="#fee2e2" opacity="0.0472" /><circle cx="1024.0" cy="984.0" r="310.0" fill="#fee2e2" opacity="0.0643" /><circle cx="1024.0" cy="984.0" r="265.7" fill="#fee2e2" opacity="0.0840" /><circle cx="1024.0" cy="984.0" r="221.4" fill="#fee2e2" opacity="0.1063" /><circle cx="1024.0" cy="984.0" r="177.1" fill="#fee2e2" opacity="0.1312" /><circle cx="1024.0" cy="984.0" r="132.9" fill="#fee2e2" opacity="0.1587" /><circle cx="1024.0" cy="984.0" r="88.6" fill="#fee2e2" opacity="0.1889" /><circle cx="1024.0" cy="984.0" r="44.3" fill="#fee2e2" opacity="0.2217" />
  <ellipse cx="1024.0" cy="1234.0" rx="380.0" ry="52.0" fill="#0F172A" opacity="0.12" /><rect x="734.0" y="1174.0" width="160.0" height="26.0" fill="#dc2626"  /><ellipse cx="814.0" cy="1200.0" rx="80.0" ry="40.0" fill="#dc2626"  opacity="0.85" /><ellipse cx="814.0" cy="1174.0" rx="80.0" ry="40.0" fill="#ffffff"  /><rect x="734.0" y="1140.0" width="160.0" height="26.0" fill="#dc2626"  /><ellipse cx="814.0" cy="1166.0" rx="80.0" ry="40.0" fill="#dc2626"  opacity="0.85" /><ellipse cx="814.0" cy="1140.0" rx="80.0" ry="40.0" fill="#fee2e2"  /><rect x="734.0" y="1106.0" width="160.0" height="26.0" fill="#dc2626"  /><ellipse cx="814.0" cy="1132.0" rx="80.0" ry="40.0" fill="#dc2626"  opacity="0.85" /><ellipse cx="814.0" cy="1106.0" rx="80.0" ry="40.0" fill="#ffffff"  /><rect x="734.0" y="1072.0" width="160.0" height="26.0" fill="#dc2626"  /><ellipse cx="814.0" cy="1098.0" rx="80.0" ry="40.0" fill="#dc2626"  opacity="0.85" /><ellipse cx="814.0" cy="1072.0" rx="80.0" ry="40.0" fill="#fee2e2"  /><rect x="734.0" y="1038.0" width="160.0" height="26.0" fill="#dc2626"  /><ellipse cx="814.0" cy="1064.0" rx="80.0" ry="40.0" fill="#dc2626"  opacity="0.85" /><ellipse cx="814.0" cy="1038.0" rx="80.0" ry="40.0" fill="#ffffff"  /><rect x="734.0" y="1004.0" width="160.0" height="26.0" fill="#dc2626"  /><ellipse cx="814.0" cy="1030.0" rx="80.0" ry="40.0" fill="#dc2626"  opacity="0.85" /><ellipse cx="814.0" cy="1004.0" rx="80.0" ry="40.0" fill="#fee2e2"  /><polygon points="1012.1,889.0 1194.0,994.0 1194.0,1012.0 1012.1,907.0" fill="#fee2e2" stroke="#dc2626" stroke-width="2" stroke-opacity="0.55" /><polygon points="1488.4,824.0 1194.0,994.0 1194.0,1012.0 1488.4,842.0" fill="#fee2e2" stroke="#dc2626" stroke-width="2" stroke-opacity="0.55" /><polygon points="1306.6,719.0 1488.4,824.0 1194.0,994.0 1012.1,889.0" fill="rgba(255,255,255,0.7)" stroke="#dc2626" stroke-width="2" stroke-opacity="0.55" /><polygon points="1076.6,865.4 1102.0,880.1 1102.0,883.1 1076.6,868.4" fill="#f87171" opacity="0.6" /><polygon points="1249.3,795.1 1102.0,880.1 1102.0,883.1 1249.3,798.1" fill="#f87171" opacity="0.6" /><polygon points="1223.8,780.4 1249.3,795.1 1102.0,880.1 1076.6,865.4" fill="#f87171" opacity="0.6" /><polygon points="1109.3,884.3 1134.8,899.0 1134.8,902.0 1109.3,887.3" fill="#f87171" opacity="0.52" /><polygon points="1258.4,827.6 1134.8,899.0 1134.8,902.0 1258.4,830.6" fill="#f87171" opacity="0.52" /><polygon points="1233.0,812.9 1258.4,827.6 1134.8,899.0 1109.3,884.3" fill="#f87171" opacity="0.52" /><polygon points="1142.0,903.2 1167.5,917.9 1167.5,920.9 1142.0,906.2" fill="#f87171" opacity="0.43999999999999995" /><polygon points="1267.6,860.1 1167.5,917.9 1167.5,920.9 1267.6,863.1" fill="#f87171" opacity="0.43999999999999995" /><polygon points="1242.1,845.4 1267.6,860.1 1167.5,917.9 1142.0,903.2" fill="#f87171" opacity="0.43999999999999995" /><circle cx="1424.0" cy="724.0" r="44.0" fill="#f87171" opacity="0.112" /><circle cx="1424.0" cy="724.0" r="20.0" fill="#f87171" opacity="0.8" /><circle cx="1418.0" cy="718.0" r="7.0" fill="#ffffff" opacity="0.48" /><circle cx="644.0" cy="764.0" r="30.8" fill="#dc2626" opacity="0.084" /><circle cx="644.0" cy="764.0" r="14.0" fill="#dc2626" opacity="0.6" /><circle cx="639.8" cy="759.8" r="4.9" fill="#ffffff" opacity="0.36" />
</svg>
