<svg width="2048" height="2048" viewBox="0 0 2048 2048" fill="none" xmlns="http://www.w3.org/2000/svg">
  <circle cx="1024.0" cy="984.0" r="620.0" fill="#fee2e2" opacity="0.0000" /><circle cx="1024.0" cy="984.0" r="575.7" fill="#fee2e2" opacity="0.0013" /><circle cx="1024.0" cy="984.0" r="531.4" fill="#fee2e2" opacity="0.0052" /><circle cx="1024.0" cy="984.0" r="487.1" fill="#fee2e2" opacity="0.0118" /><circle cx="1024.0" cy="984.0" r="442.9" fill="#fee2e2" opacity="0.0210" /><circle cx="1024.0" cy="984.0" r="398.6" fill="#fee2e2" opacity="0.0328" /><circle cx="1024.0" cy="984.0" r="354.3" fill="#fee2e2" opacity="0.0472" /><circle cx="1024.0" cy="984.0" r="310.0" fill="#fee2e2" opacity="0.0643" /><circle cx="1024.0" cy="984.0" r="265.7" fill="#fee2e2" opacity="0.0840" /><circle cx="1024.0" cy="984.0" r="221.4" fill="#fee2e2" opacity="0.1063" /><circle cx="1024.0" cy="984.0" r="177.1" fill="#fee2e2" opacity="0.1312" /><circle cx="1024.0" cy="984.0" r="132.9" fill="#fee2e2" opacity="0.1587" /><circle cx="1024.0" cy="984.0" r="88.6" fill="#fee2e2" opacity="0.1889" /><circle cx="1024.0" cy="984.0" r="44.3" fill="#fee2e2" opacity="0.2217" />
  <ellipse cx="1024.0" cy="1334.0" rx="400.0" ry="56.0" fill="#0F172A" opacity="0.12" /><polygon points="678.2,1199.0 886.1,1319.0 886.1,1519.0 678.2,1399.0" fill="#dc2626"  /><polygon points="1249.8,1109.0 886.1,1319.0 886.1,1519.0 1249.8,1309.0" fill="#991b1b"  /><polygon points="1041.9,989.0 1249.8,1109.0 886.1,1319.0 678.2,1199.0" fill="#fee2e2"  /><rect x="848.0" y="1004.0" width="52.0" height="170.0" fill="#f87171"  /><ellipse cx="874.0" cy="1174.0" rx="26.0" ry="13.0" fill="#f87171"  opacity="0.85" /><ellipse cx="874.0" cy="1004.0" rx="26.0" ry="13.0" fill="#ffffff"  /><rect x="932.0" y="1051.0" width="44.0" height="120.0" fill="#f87171"  /><ellipse cx="954.0" cy="1171.0" rx="22.0" ry="11.0" fill="#f87171"  opacity="0.85" /><ellipse cx="954.0" cy="1051.0" rx="22.0" ry="11.0" fill="#ffffff"  /><rect x="1520.0" y="966.0" width="36.0" height="36.0" rx="6" fill="#dc2626" transform="rotate(0 1538.0 984.0)" /><rect x="1486.6" y="1046.6" width="36.0" height="36.0" rx="6" fill="#dc2626" transform="rotate(45 1504.6 1064.6)" /><rect x="1406.0" y="1080.0" width="36.0" height="36.0" rx="6" fill="#dc2626" transform="rotate(90 1424.0 1098.0)" /><rect x="1325.4" y="1046.6" width="36.0" height="36.0" rx="6" fill="#dc2626" transform="rotate(135 1343.4 1064.6)" /><rect x="1292.0" y="966.0" width="36.0" height="36.0" rx="6" fill="#dc2626" transform="rotate(180 1310.0 984.0)" /><rect x="1325.4" y="885.4" width="36.0" height="36.0" rx="6" fill="#dc2626" transform="rotate(225 1343.4 903.4)" /><rect x="1406.0" y="852.0" width="36.0" height="36.0" rx="6" fill="#dc2626" transform="rotate(270 1424.0 870.0)" /><rect x="1486.6" y="885.4" width="36.0" height="36.0" rx="6" fill="#dc2626" transform="rotate(315 1504.6 903.4)" /><circle cx="1424.0" cy="984.0" r="100.0" fill="#dc2626" stroke="#991b1b" stroke-width="6" /><circle cx="1424.0" cy="984.0" r="36.0" fill="#ffffff"  /><circle cx="1424.0" cy="984.0" r="14.0" fill="#991b1b"  /><polygon points="903.4,1309.0 964.0,1344.0 964.0,1354.0 903.4,1319.0" fill="#fee2e2" stroke="#dc2626" stroke-width="2" stroke-opacity="0.55" /><polygon points="1189.2,1214.0 964.0,1344.0 964.0,1354.0 1189.2,1224.0" fill="#fee2e2" stroke="#dc2626" stroke-width="2" stroke-opacity="0.55" /><polygon points="1128.5,1179.0 1189.2,1214.0 964.0,1344.0 903.4,1309.0" fill="rgba(255,255,255,0.7)" stroke="#dc2626" stroke-width="2" stroke-opacity="0.55" />
</svg>
